<svg width="9" height="16" viewBox="0 0 9 16" fill="none" xmlns="http://www.w3.org/2000/svg">
<path d="M0.333339 8.40284C0.332806 8.15385 0.427743 7.91254 0.601671 7.72082L6.435 1.32681C6.63303 1.10918 6.9176 0.972324 7.22609 0.946343C7.53459 0.920362 7.84175 1.00739 8.08 1.18827C8.31826 1.36916 8.46809 1.62909 8.49653 1.91088C8.52497 2.19267 8.4297 2.47324 8.23167 2.69086L3.005 8.40284L8.045 14.1148C8.14191 14.2238 8.21428 14.3493 8.25795 14.4839C8.30162 14.6185 8.31573 14.7597 8.29947 14.8994C8.28321 15.039 8.2369 15.1743 8.16319 15.2975C8.08949 15.4208 7.98985 15.5295 7.87 15.6174C7.75005 15.715 7.60931 15.7889 7.45663 15.8345C7.30394 15.8801 7.14259 15.8964 6.98269 15.8824C6.82278 15.8684 6.66776 15.8244 6.52734 15.7531C6.38693 15.6819 6.26414 15.5849 6.16667 15.4682L0.531672 9.07422C0.385237 8.87698 0.315406 8.6406 0.333339 8.40284Z" fill="#C0BEFF"/>
</svg>
