<svg width="18" height="18" viewBox="0 0 18 18" fill="none" xmlns="http://www.w3.org/2000/svg">
<path d="M14.3025 3.69752C13.0719 2.45889 11.4478 1.68843 9.70999 1.51895C7.97223 1.34947 6.22979 1.7916 4.78307 2.76912C3.33634 3.74663 2.276 5.19827 1.78485 6.87378C1.2937 8.54928 1.40251 10.3436 2.09253 11.9475C2.16445 12.0966 2.18804 12.2644 2.16003 12.4275L1.50003 15.6C1.4746 15.7217 1.47979 15.8477 1.51514 15.9668C1.55048 16.086 1.61488 16.1944 1.70253 16.2825C1.77438 16.3538 1.85993 16.4099 1.95403 16.4473C2.04812 16.4847 2.14881 16.5026 2.25003 16.5H2.40003L5.61003 15.855C5.77318 15.8354 5.93862 15.8587 6.09003 15.9225C7.6939 16.6125 9.48827 16.7213 11.1638 16.2302C12.8393 15.739 14.2909 14.6787 15.2684 13.232C16.2459 11.7853 16.6881 10.0428 16.5186 8.30505C16.3491 6.56729 15.5787 4.94311 14.34 3.71252L14.3025 3.69752ZM6.00003 9.75002C5.85169 9.75002 5.70669 9.70603 5.58335 9.62362C5.46001 9.54121 5.36388 9.42407 5.30712 9.28703C5.25035 9.14999 5.2355 8.99919 5.26444 8.8537C5.29338 8.70821 5.36481 8.57458 5.4697 8.46969C5.57459 8.3648 5.70822 8.29337 5.85371 8.26443C5.9992 8.23549 6.15 8.25034 6.28704 8.30711C6.42409 8.36387 6.54122 8.46 6.62363 8.58334C6.70604 8.70668 6.75003 8.85168 6.75003 9.00002C6.75003 9.19893 6.67101 9.38969 6.53036 9.53035C6.38971 9.671 6.19894 9.75002 6.00003 9.75002ZM9.00003 9.75002C8.85169 9.75002 8.70669 9.70603 8.58335 9.62362C8.46001 9.54121 8.36388 9.42407 8.30712 9.28703C8.25035 9.14999 8.2355 8.99919 8.26444 8.8537C8.29338 8.70821 8.36481 8.57458 8.4697 8.46969C8.57459 8.3648 8.70822 8.29337 8.85371 8.26443C8.9992 8.23549 9.15 8.25034 9.28704 8.30711C9.42409 8.36387 9.54122 8.46 9.62363 8.58334C9.70604 8.70668 9.75003 8.85168 9.75003 9.00002C9.75003 9.19893 9.67101 9.38969 9.53036 9.53035C9.38971 9.671 9.19894 9.75002 9.00003 9.75002ZM12 9.75002C11.8517 9.75002 11.7067 9.70603 11.5833 9.62362C11.46 9.54121 11.3639 9.42407 11.3071 9.28703C11.2504 9.14999 11.2355 8.99919 11.2644 8.8537C11.2934 8.70821 11.3648 8.57458 11.4697 8.46969C11.5746 8.3648 11.7082 8.29337 11.8537 8.26443C11.9992 8.23549 12.15 8.25034 12.287 8.30711C12.4241 8.36387 12.5412 8.46 12.6236 8.58334C12.706 8.70668 12.75 8.85168 12.75 9.00002C12.75 9.19893 12.671 9.38969 12.5304 9.53035C12.3897 9.671 12.1989 9.75002 12 9.75002Z" fill="white"/>
</svg>
