<svg width="9" height="17" viewBox="0 0 9 17" fill="none" xmlns="http://www.w3.org/2000/svg">
<path d="M0.533202 8.61255C0.526912 8.33405 0.618339 8.06215 0.791615 7.84403L6.6039 0.569254C6.80121 0.321659 7.08878 0.162583 7.40337 0.12702C7.71796 0.0914576 8.03379 0.182321 8.28138 0.379622C8.52898 0.576923 8.68805 0.8645 8.72362 1.17909C8.75918 1.49368 8.66832 1.80951 8.47102 2.0571L3.26281 8.55623L8.54393 14.8389C8.64546 14.9588 8.72229 15.0976 8.77002 15.2473C8.81774 15.3969 8.83541 15.5546 8.82202 15.7111C8.80863 15.8676 8.76443 16.0199 8.69198 16.1593C8.61952 16.2987 8.52023 16.4224 8.39981 16.5233C8.2795 16.635 8.13743 16.7206 7.98248 16.7749C7.82754 16.8291 7.66306 16.8507 7.49936 16.8384C7.33567 16.8261 7.17627 16.7802 7.03116 16.7034C6.88606 16.6267 6.75837 16.5207 6.65609 16.3923L0.751329 9.35931C0.597167 9.14178 0.520367 8.87885 0.533202 8.61255Z" fill="#5855D6"/>
</svg>
