<svg width="17" height="20" viewBox="0 0 17 20" fill="none" xmlns="http://www.w3.org/2000/svg">
<path d="M8.57607 19.9375C7.01098 19.9375 5.76639 19.2799 5.59939 17.8905C5.59497 17.849 5.59943 17.807 5.61249 17.7673C5.62555 17.7276 5.64691 17.6911 5.67518 17.6602C5.70345 17.6292 5.73799 17.6045 5.77655 17.5877C5.8151 17.5708 5.85681 17.5623 5.89893 17.5625H11.2495C11.292 17.5622 11.3341 17.5709 11.373 17.588C11.412 17.6051 11.4467 17.6302 11.4751 17.6616C11.5034 17.6931 11.5247 17.7302 11.5374 17.7704C11.5502 17.8107 11.5541 17.8531 11.549 17.895C11.3581 19.2584 10.1247 19.9375 8.57607 19.9375ZM15.9148 16.375H1.23734C0.350706 16.375 -0.110586 15.2617 0.399381 14.668C1.62225 13.2326 2.48642 12.6292 2.48642 8.67109C2.48642 5.04402 4.41396 3.75707 6.00602 3.12918C6.11558 3.08393 6.21436 3.01643 6.296 2.93104C6.37765 2.84565 6.44034 2.74426 6.48004 2.6334C6.75637 1.72422 7.53817 0.9375 8.57607 0.9375C9.61398 0.9375 10.3943 1.72422 10.6729 2.63414C10.7128 2.74498 10.7757 2.84634 10.8574 2.93171C10.9392 3.01708 11.038 3.08459 11.1476 3.12992C12.7359 3.75633 14.6672 5.04551 14.6672 8.67184C14.6672 12.6299 15.5306 13.2333 16.7535 14.6687C17.2582 15.2617 16.7962 16.375 15.9148 16.375Z" fill="white"/>
</svg>
