<svg width="19" height="18" viewBox="0 0 19 18" fill="none" xmlns="http://www.w3.org/2000/svg">
<path d="M15.1358 3.69752C13.9052 2.45889 12.281 1.68843 10.5432 1.51895C8.80548 1.34947 7.06304 1.7916 5.61632 2.76912C4.1696 3.74663 3.10926 5.19827 2.6181 6.87378C2.12695 8.54928 2.23576 10.3436 2.92578 11.9475C2.9977 12.0966 3.02129 12.2644 2.99328 12.4275L2.33328 15.6C2.30785 15.7217 2.31304 15.8477 2.34839 15.9668C2.38374 16.086 2.44813 16.1944 2.53578 16.2825C2.60763 16.3538 2.69319 16.4099 2.78728 16.4473C2.88138 16.4847 2.98206 16.5026 3.08328 16.5H3.23328L6.44328 15.855C6.60643 15.8354 6.77187 15.8587 6.92328 15.9225C8.52715 16.6125 10.3215 16.7213 11.997 16.2302C13.6725 15.739 15.1242 14.6787 16.1017 13.232C17.0792 11.7853 17.5213 10.0428 17.3518 8.30505C17.1824 6.56729 16.4119 4.94311 15.1733 3.71252L15.1358 3.69752ZM6.83328 9.75002C6.68494 9.75002 6.53994 9.70603 6.4166 9.62362C6.29327 9.54121 6.19714 9.42407 6.14037 9.28703C6.0836 9.14999 6.06875 8.99919 6.09769 8.8537C6.12663 8.70821 6.19806 8.57458 6.30295 8.46969C6.40784 8.3648 6.54148 8.29337 6.68696 8.26443C6.83245 8.23549 6.98325 8.25034 7.12029 8.30711C7.25734 8.36387 7.37447 8.46 7.45688 8.58334C7.53929 8.70668 7.58328 8.85168 7.58328 9.00002C7.58328 9.19893 7.50426 9.38969 7.36361 9.53035C7.22296 9.671 7.03219 9.75002 6.83328 9.75002ZM9.83328 9.75002C9.68494 9.75002 9.53994 9.70603 9.4166 9.62362C9.29326 9.54121 9.19714 9.42407 9.14037 9.28703C9.0836 9.14999 9.06875 8.99919 9.09769 8.8537C9.12663 8.70821 9.19806 8.57458 9.30295 8.46969C9.40784 8.3648 9.54148 8.29337 9.68696 8.26443C9.83245 8.23549 9.98325 8.25034 10.1203 8.30711C10.2573 8.36387 10.3745 8.46 10.4569 8.58334C10.5393 8.70668 10.5833 8.85168 10.5833 9.00002C10.5833 9.19893 10.5043 9.38969 10.3636 9.53035C10.223 9.671 10.0322 9.75002 9.83328 9.75002ZM12.8333 9.75002C12.6849 9.75002 12.5399 9.70603 12.4166 9.62362C12.2933 9.54121 12.1971 9.42407 12.1404 9.28703C12.0836 9.14999 12.0688 8.99919 12.0977 8.8537C12.1266 8.70821 12.1981 8.57458 12.3029 8.46969C12.4078 8.3648 12.5415 8.29337 12.687 8.26443C12.8324 8.23549 12.9832 8.25034 13.1203 8.30711C13.2573 8.36387 13.3745 8.46 13.4569 8.58334C13.5393 8.70668 13.5833 8.85168 13.5833 9.00002C13.5833 9.19893 13.5043 9.38969 13.3636 9.53035C13.223 9.671 13.0322 9.75002 12.8333 9.75002Z" fill="white"/>
</svg>
