<svg width="18" height="9" viewBox="0 0 18 9" fill="none" xmlns="http://www.w3.org/2000/svg">
<path d="M9.0256 0.501307C9.29819 0.500774 9.56237 0.595712 9.77226 0.76964L16.7723 6.60297C17.0105 6.801 17.1603 7.08556 17.1888 7.39406C17.2172 7.70256 17.122 8.00972 16.9239 8.24797C16.7259 8.48623 16.4413 8.63605 16.1328 8.6645C15.8243 8.69294 15.5172 8.59767 15.2789 8.39964L9.0256 3.17297L2.77226 8.21297C2.65293 8.30988 2.51561 8.38225 2.36822 8.42592C2.22082 8.46959 2.06625 8.4837 1.91338 8.46744C1.76052 8.45118 1.61237 8.40487 1.47746 8.33116C1.34255 8.25746 1.22354 8.15782 1.12726 8.03797C1.02042 7.91801 0.939499 7.77728 0.889574 7.6246C0.839649 7.47191 0.821796 7.31056 0.83713 7.15065C0.852463 6.99075 0.900654 6.83573 0.978683 6.69531C1.05672 6.5549 1.1629 6.43211 1.2906 6.33464L8.2906 0.699641C8.50653 0.553205 8.76531 0.483375 9.0256 0.501307Z" fill="#C0BEFF"/>
</svg>
